<?xml version="1.0" standalone="no"?><!DOCTYPE svg PUBLIC "-//W3C//DTD SVG 1.1//EN" "http://www.w3.org/Graphics/SVG/1.1/DTD/svg11.dtd"><svg t="1712557686476" class="icon" viewBox="0 0 1024 1024" version="1.1" xmlns="http://www.w3.org/2000/svg" p-id="26806" xmlns:xlink="http://www.w3.org/1999/xlink" width="128" height="128"><path d="M680.3 799.2H480c-36.9 0-66.8-30-66.8-67v-400h-44.5v400c0 61.6 49.8 111.5 111.2 111.5h200.3v-44.5zM213 287.4h445V153.9H213v133.5z m-44.5 0V153.9c0-24.6 19.9-44.5 44.5-44.5h445c24.6 0 44.5 19.9 44.5 44.5v133.5c0 24.6-19.9 44.5-44.5 44.5H213c-24.6 0-44.5-19.9-44.5-44.5z" fill="#37BD4B" p-id="26807"></path><path d="M368.8 532.2h311.5v-44.5H368.8zM858.3 821.4c0 61.4-49.8 111.2-111.2 111.2s-111.2-49.8-111.2-111.2 49.8-111.2 111.2-111.2S858.3 760 858.3 821.4z m-44.5 0c0-36.9-29.9-66.8-66.8-66.8s-66.8 29.9-66.8 66.8 29.9 66.8 66.8 66.8 66.8-29.9 66.8-66.8z" fill="#37BD4B" p-id="26808"></path><path d="M858.3 509.9c0 61.4-49.8 111.2-111.2 111.2s-111.2-49.8-111.2-111.2 49.8-111.2 111.2-111.2 111.2 49.8 111.2 111.2z m-44.5 0c0-36.9-29.9-66.8-66.8-66.8s-66.8 29.9-66.8 66.8 29.9 66.8 66.8 66.8 66.8-29.9 66.8-66.8z" fill="#37BD4B" p-id="26809"></path></svg>